<svg viewBox="0 0 17 20" fill="none" xmlns="http://www.w3.org/2000/svg"><path
    id="icons-sprite_svg__Subtract"
    fill-rule="evenodd"
    clip-rule="evenodd"
    d="M15.489 7.566c0-.601-.24-1.178-.665-1.603l-1.49-1.488-2.96-2.86A2.265 2.265 0 008.802.98H2.897A2.084 2.084 0 00.813 3.063v13.954c0 1.15.933 2.084 2.084 2.084h10.508c1.15 0 2.084-.933 2.084-2.084V7.566z"
    fill="#00c1a3"
    stroke="#00c1a3"
    stroke-width="1.525"
    stroke-linejoin="round"
  /><path
    id="icons-sprite_svg__Vector"
    d="M11.053 10.072a.708.708 0 00.655-.436l-.132-.055.132.055a.705.705 0 00.054-.27v-.001a.707.707 0 00-.709-.706c-1.023 0-1.733.366-2.26.882-.517.507-.854 1.155-1.145 1.712l-.004.01-.383.72h0c-.312.6-.574 1.059-.898 1.371-.315.304-.693.472-1.256.472a.709.709 0 00-.708.707h0a.707.707 0 00.708.706h0c1.024 0 1.734-.366 2.26-.882.518-.507.855-1.155 1.146-1.712l.004-.01h0l.382-.72h0c.313-.6.575-1.059.898-1.371.315-.304.694-.472 1.256-.472zm0 0s0 0 0 0v-.143.143s0 0 0 0z"
    fill="#fff"
    stroke="#fff"
    stroke-width="0.286"
  /></svg>
